<svg
            width="24"
            height="24"
            fill="currentColor"
            viewBox="0 0 20 20"
            xmlns="http://www.w3.org/2000/svg">
            <path
              fill-rule="evenodd"
              d="M3 5a1 1 0 011-1h12a1 1 0 110 2H4a1 1 0 01-1-1zM3 10a1 1 0 011-1h12a1 1 0 110 2H4a1 1 0 01-1-1zM3 15a1 1 0 011-1h12a1 1 0 110 2H4a1 1 0 01-1-1z"
              clip-rule="evenodd"></path>

<symbol id="icon-menu" viewBox="0 0 32 32">
<path d="M2 6h28v6h-28zM2 14h28v6h-28zM2 22h28v6h-28z"></path>
</symbol>

</svg>